<svg id="visual" viewBox="0 0 900 600" width="900" height="600" xmlns="http://www.w3.org/2000/svg" xmlns:xlink="http://www.w3.org/1999/xlink" version="1.1"><rect x="0" y="0" width="900" height="600" fill="#fff"></rect><path d="M0 407L37.5 386.7C75 366.3 150 325.7 225 314.7C300 303.7 375 322.3 450 336C525 349.7 600 358.3 675 346.7C750 335 825 303 862.5 287L900 271L900 601L862.5 601C825 601 750 601 675 601C600 601 525 601 450 601C375 601 300 601 225 601C150 601 75 601 37.5 601L0 601Z" fill="#ecca2f" stroke-linecap="round" stroke-linejoin="miter"></path></svg>